<svg width="2400" height="1206" viewBox="0 0 2400 1206" fill="none" xmlns="http://www.w3.org/2000/svg">
<rect width="2400" height="1206" fill="#E5E5E5"/>
<g clip-path="url(#clip0)">
<path d="M214.55 1026.53H386V1128C386 1147.89 378.098 1166.97 364.033 1181.03C349.968 1195.1 330.891 1203 311 1203H289.55C269.659 1203 250.582 1195.1 236.517 1181.03C222.452 1166.97 214.55 1147.89 214.55 1128V1026.53Z" fill="#56D679"/>
<path d="M514.55 817.29C514.55 698.94 418.63 603 300.28 603C181.93 603 86 698.94 86 817.29C85.9947 858.988 98.1537 899.781 120.987 934.672C143.821 969.562 176.336 997.034 214.55 1013.72V1061.82H386V1013.72C424.214 997.034 456.729 969.562 479.563 934.672C502.396 899.781 514.555 858.988 514.55 817.29V817.29Z" fill="white" stroke="black" stroke-width="4.62" stroke-linejoin="round"/>
<path d="M386 1097.12H214.57" stroke="black" stroke-width="4.62" stroke-linejoin="round"/>
<path d="M386 1132.41H214.57" stroke="black" stroke-width="4.62" stroke-linejoin="round"/>
<path d="M263.92 926C260.324 926 256.809 924.934 253.82 922.936C250.83 920.938 248.5 918.099 247.124 914.777C245.748 911.455 245.388 907.8 246.089 904.273C246.791 900.747 248.522 897.507 251.065 894.965C253.607 892.422 256.847 890.691 260.373 889.989C263.9 889.288 267.555 889.648 270.877 891.024C274.199 892.4 277.039 894.73 279.036 897.72C281.034 900.709 282.1 904.224 282.1 907.82" stroke="black" stroke-width="4.62" stroke-linejoin="round"/>
<path d="M318.47 907.81C318.472 904.215 319.54 900.701 321.539 897.712C323.538 894.724 326.378 892.395 329.7 891.021C333.022 889.647 336.677 889.288 340.203 889.991C343.729 890.693 346.967 892.425 349.509 894.968C352.05 897.511 353.781 900.751 354.481 904.277C355.182 907.803 354.821 911.458 353.445 914.78C352.069 918.101 349.739 920.94 346.749 922.937C343.76 924.934 340.245 926 336.65 926" stroke="black" stroke-width="4.62" stroke-linejoin="round"/>
<path d="M336.65 925.99H263.92" stroke="black" stroke-width="4.62" stroke-linejoin="round"/>
<path d="M282.1 1061.82V907.81" stroke="black" stroke-width="4.62" stroke-linejoin="round"/>
<path d="M318.47 1061.82V907.81" stroke="black" stroke-width="4.62" stroke-linejoin="round"/>
<path d="M2099.77 1103C2210.23 1103 2299.77 1013.46 2299.77 903C2299.77 792.543 2210.23 703 2099.77 703C1989.31 703 1899.77 792.543 1899.77 903C1899.77 1013.46 1989.31 1103 2099.77 1103Z" fill="#3DBB61"/>
<path d="M2099.77 703C2155 703 2199.77 792.54 2199.77 903C2199.77 1013.46 2155 1103 2099.77 1103" stroke="black" stroke-width="4.62" stroke-linejoin="round"/>
<path d="M2099.77 1103C2044.54 1103 1999.77 1013.46 1999.77 903C1999.77 792.54 2044.54 703 2099.77 703" stroke="black" stroke-width="4.62" stroke-linejoin="round"/>
<path d="M2099.77 703V1103" stroke="black" stroke-width="4.62" stroke-linejoin="round"/>
<path d="M1899.77 903H2299.77" stroke="black" stroke-width="4.62" stroke-linejoin="round"/>
<path d="M2099.77 703C2155 703 2199.77 792.54 2199.77 903C2199.77 1013.46 2155 1103 2099.77 1103" stroke="black" stroke-width="4.62" stroke-linejoin="round"/>
<path d="M2099.77 1103C2044.54 1103 1999.77 1013.46 1999.77 903C1999.77 792.54 2044.54 703 2099.77 703" stroke="black" stroke-width="4.62" stroke-linejoin="round"/>
<path d="M1199.77 603H597.45V1203H1199.77V603Z" stroke="black" stroke-width="4.62" stroke-linejoin="round"/>
<path d="M599.77 1203H-0.22998V603H599.77" stroke="black" stroke-width="4.62" stroke-linejoin="round"/>
<path d="M2099.19 603H2100.35C2139.67 603 2178.61 610.745 2214.93 625.792C2251.26 640.839 2284.27 662.894 2312.07 690.698C2339.88 718.502 2361.93 751.51 2376.98 787.837C2392.03 824.164 2399.77 863.1 2399.77 902.42V903.58C2399.77 942.9 2392.03 981.836 2376.98 1018.16C2361.93 1054.49 2339.88 1087.5 2312.07 1115.3C2284.27 1143.11 2251.26 1165.16 2214.93 1180.21C2178.61 1195.26 2139.67 1203 2100.35 1203H1799.77V902.42C1799.77 863.1 1807.51 824.164 1822.56 787.837C1837.61 751.51 1859.66 718.502 1887.47 690.698C1915.27 662.894 1948.28 640.839 1984.61 625.792C2020.93 610.745 2059.87 603 2099.19 603V603Z" stroke="black" stroke-width="4.62" stroke-linejoin="round"/>
<path d="M590.971 9.32646C590.971 9.32646 426.521 -23.0035 345.061 58.5065C318.811 84.7565 304.381 119.596 296.861 154.786H294.971C287.421 119.626 272.971 84.8365 246.731 58.6065C165.081 -23.0035 0.330936 9.32646 0.330936 9.32646C0.330936 9.32646 -32.0392 174.076 49.6108 255.726C102.731 308.846 191.021 308.426 246.231 305.346V602.996H346.231V304.786C401.391 307.786 489.001 308.036 541.791 255.246C623.281 173.756 590.971 9.32646 590.971 9.32646Z" fill="#56D679"/>
<path d="M0 12L250 262" stroke="black" stroke-width="4.62" stroke-linejoin="round"/>
<path d="M605 3L355 253" stroke="black" stroke-width="4.62" stroke-linejoin="round"/>
<path d="M1199.77 603H599.77V3H1199.77" stroke="black" stroke-width="4.62" stroke-linejoin="round"/>
<path d="M1799.77 3H1199.77V603H1799.77V3Z" stroke="black" stroke-width="4.62" stroke-linejoin="round"/>
<path d="M1194 3L600 603" stroke="black" stroke-width="4.62" stroke-linejoin="round"/>
<path d="M1200 1203L1800 603" stroke="black" stroke-width="4.62" stroke-linejoin="round"/>
<path d="M1288.69 927.337C1277.38 916.017 1268.4 902.578 1262.27 887.788C1256.15 872.998 1253 857.146 1253 841.138C1253 825.13 1256.16 809.279 1262.28 794.491C1268.41 779.702 1277.39 766.265 1288.71 754.947C1300.03 743.629 1313.47 734.652 1328.26 728.528C1343.05 722.403 1358.9 719.252 1374.91 719.254C1390.92 719.256 1406.77 722.411 1421.56 728.539C1436.35 734.666 1449.79 743.647 1461.1 754.967L1493.02 786.877L1524.93 754.967C1536.19 743.377 1549.64 734.141 1564.5 727.795C1579.36 721.449 1595.33 718.121 1611.49 718.003C1627.64 717.886 1643.66 720.982 1658.61 727.111C1673.56 733.24 1687.14 742.28 1698.56 753.706C1709.99 765.131 1719.03 778.714 1725.16 793.664C1731.28 808.614 1734.38 824.633 1734.26 840.79C1734.14 856.946 1730.81 872.918 1724.46 887.776C1718.11 902.634 1708.87 916.082 1697.28 927.337L1492.99 1131.64L1288.69 927.337Z" fill="#10642A"/>
<path d="M597 603L1200 1203" stroke="black" stroke-width="4.62" stroke-linejoin="round"/>
</g>
<path d="M1800 603H1200V1203H1800V603Z" stroke="black" stroke-width="4.62" stroke-linejoin="round"/>
<path d="M1752.12 254C1752.12 115.4 1639.76 3 1501.12 3C1362.48 3 1250.12 115.36 1250.12 254L1200 354.35H1251.59C1261.24 441.63 1320.59 513.92 1400.77 542.25V603H1701.93V404.51C1734.58 361.129 1752.19 308.292 1752.12 254Z" fill="white" stroke="black" stroke-width="4.62" stroke-linejoin="round"/>
<defs>
<clipPath id="clip0">
<rect width="2400" height="1200" fill="white" transform="translate(0 3)"/>
</clipPath>
</defs>
</svg>
