<svg width="2438" height="1234" viewBox="0 0 2438 1234" fill="none" xmlns="http://www.w3.org/2000/svg">
<rect width="2438" height="1234" fill="#E5E5E5"/>
<rect width="2438" height="1234" fill="white"/>
<g clip-path="url(#clip0)">
<path d="M2106.02 1117C2214.92 1117 2303.19 1027.46 2303.19 917C2303.19 806.543 2214.92 717 2106.02 717C1997.13 717 1908.86 806.543 1908.86 917C1908.86 1027.46 1997.13 1117 2106.02 1117Z" fill="#3DBB61"/>
<path d="M247.51 1040.53H416.532V1142C416.532 1161.89 408.742 1180.97 394.876 1195.03C381.01 1209.1 362.204 1217 342.594 1217H321.448C301.839 1217 283.032 1209.1 269.166 1195.03C255.3 1180.97 247.51 1161.89 247.51 1142V1040.53Z" fill="#56D679"/>
<path d="M543.261 831.29C543.261 712.94 448.699 617 332.026 617C215.353 617 120.782 712.94 120.782 831.29C120.776 872.988 132.763 913.781 155.273 948.672C177.783 983.562 209.838 1011.03 247.511 1027.72V1075.82H416.532V1027.72C454.204 1011.03 486.259 983.562 508.769 948.672C531.279 913.781 543.266 872.988 543.261 831.29V831.29Z" fill="white" stroke="#4D0B0B" stroke-width="4.62" stroke-linejoin="round"/>
<path d="M416.532 1111.12H247.53" stroke="#4D0B0B" stroke-width="4.62" stroke-linejoin="round"/>
<path d="M416.532 1146.41H247.53" stroke="#4D0B0B" stroke-width="4.62" stroke-linejoin="round"/>
<path d="M296.181 940C292.637 940 289.171 938.934 286.224 936.936C283.277 934.938 280.98 932.099 279.623 928.777C278.267 925.455 277.912 921.8 278.603 918.273C279.295 914.747 281.002 911.507 283.508 908.965C286.015 906.422 289.208 904.691 292.685 903.989C296.161 903.288 299.765 903.648 303.04 905.024C306.315 906.4 309.114 908.73 311.083 911.72C313.053 914.709 314.104 918.224 314.104 921.82" stroke="#4D0B0B" stroke-width="4.62" stroke-linejoin="round"/>
<path d="M349.958 921.81C349.96 918.215 351.013 914.701 352.984 911.712C354.954 908.724 357.754 906.395 361.029 905.021C364.304 903.647 367.908 903.288 371.384 903.991C374.859 904.693 378.052 906.425 380.558 908.968C383.063 911.511 384.769 914.751 385.46 918.277C386.15 921.803 385.795 925.458 384.438 928.779C383.081 932.101 380.784 934.94 377.837 936.937C374.89 938.934 371.425 940 367.881 940" stroke="#4D0B0B" stroke-width="4.62" stroke-linejoin="round"/>
<path d="M367.881 939.99H296.181" stroke="#4D0B0B" stroke-width="4.62" stroke-linejoin="round"/>
<path d="M314.104 1075.82V921.81" stroke="#4D0B0B" stroke-width="4.62" stroke-linejoin="round"/>
<path d="M349.958 1075.82V921.81" stroke="#4D0B0B" stroke-width="4.62" stroke-linejoin="round"/>
<path d="M2106.02 717C2160.47 717 2204.61 806.54 2204.61 917C2204.61 1027.46 2160.47 1117 2106.02 1117" stroke="#4D0B0B" stroke-width="4.62" stroke-linejoin="round"/>
<path d="M2106.02 1117C2051.58 1117 2007.44 1027.46 2007.44 917C2007.44 806.54 2051.58 717 2106.02 717" stroke="#4D0B0B" stroke-width="4.62" stroke-linejoin="round"/>
<path d="M2106.02 717V1117" stroke="#4D0B0B" stroke-width="4.62" stroke-linejoin="round"/>
<path d="M1908.86 917H2303.19" stroke="#4D0B0B" stroke-width="4.62" stroke-linejoin="round"/>
<path d="M2106.02 717C2160.47 717 2204.61 806.54 2204.61 917C2204.61 1027.46 2160.47 1117 2106.02 1117" stroke="#4D0B0B" stroke-width="4.62" stroke-linejoin="round"/>
<path d="M2106.02 1117C2051.58 1117 2007.44 1027.46 2007.44 917C2007.44 806.54 2051.58 717 2106.02 717" stroke="#4D0B0B" stroke-width="4.62" stroke-linejoin="round"/>
<path d="M1812.79 617H1219V1217H1812.79V617Z" stroke="#4D0B0B" stroke-width="4.62" stroke-linejoin="round"/>
<path d="M1221.29 617H627.5V1217H1221.29V617Z" stroke="#4D0B0B" stroke-width="4.62" stroke-linejoin="round"/>
<path d="M627.273 1217H35.7732V617H627.273" stroke="#4D0B0B" stroke-width="4.62" stroke-linejoin="round"/>
<path d="M2105.45 617H2106.6C2145.36 617 2183.74 624.745 2219.55 639.792C2255.37 654.839 2287.91 676.894 2315.32 704.698C2342.73 732.502 2364.47 765.51 2379.3 801.837C2394.14 838.164 2401.77 877.1 2401.77 916.42V917.58C2401.77 956.9 2394.14 995.836 2379.3 1032.16C2364.47 1068.49 2342.73 1101.5 2315.32 1129.3C2287.91 1157.11 2255.37 1179.16 2219.55 1194.21C2183.74 1209.26 2145.36 1217 2106.6 1217H1810.27V916.42C1810.27 877.1 1817.91 838.164 1832.74 801.837C1847.58 765.51 1869.32 732.502 1896.73 704.698C1924.14 676.894 1956.68 654.839 1992.49 639.792C2028.3 624.745 2066.69 617 2105.45 617V617Z" stroke="#4D0B0B" stroke-width="4.62" stroke-linejoin="round"/>
<path d="M618.599 23.3265C618.599 23.3265 456.479 -9.00354 376.173 72.5065C350.294 98.7565 336.069 133.596 328.655 168.786H326.792C319.349 133.626 305.104 98.8365 279.235 72.6065C198.742 -9.00354 36.3262 23.3265 36.3262 23.3265C36.3262 23.3265 4.41469 188.076 84.908 269.726C137.275 322.846 224.315 322.426 278.743 319.346V616.996H377.326V318.786C431.704 321.786 518.073 322.036 570.116 269.246C650.451 187.756 618.599 23.3265 618.599 23.3265Z" fill="#56D679"/>
<path d="M36 26L282.458 276" stroke="#4D0B0B" stroke-width="4.62" stroke-linejoin="round"/>
<path d="M632.429 17L385.971 267" stroke="#4D0B0B" stroke-width="4.62" stroke-linejoin="round"/>
<path d="M1218.77 617H627.273V17H1218.77" stroke="#4D0B0B" stroke-width="4.62" stroke-linejoin="round"/>
<path d="M1810.27 17H1218.77V617H1810.27V17Z" stroke="#4D0B0B" stroke-width="4.62" stroke-linejoin="round"/>
<path d="M1213.08 17L627.5 617" stroke="black" stroke-width="4.62" stroke-linejoin="round"/>
<path d="M1219 1217L1810.5 617" stroke="black" stroke-width="4.62" stroke-linejoin="round"/>
<path d="M1307.69 941.337C1296.38 930.017 1287.4 916.578 1281.27 901.788C1275.15 886.998 1272 871.146 1272 855.138C1272 839.13 1275.16 823.279 1281.28 808.491C1287.41 793.702 1296.39 780.265 1307.71 768.947C1319.03 757.629 1332.47 748.652 1347.26 742.528C1362.05 736.403 1377.9 733.252 1393.91 733.254C1409.92 733.256 1425.77 736.411 1440.56 742.539C1455.35 748.666 1468.79 757.647 1480.1 768.967L1512.02 800.877L1543.93 768.967C1555.19 757.377 1568.64 748.141 1583.5 741.795C1598.36 735.449 1614.33 732.121 1630.49 732.003C1646.64 731.886 1662.66 734.982 1677.61 741.111C1692.56 747.24 1706.14 756.28 1717.56 767.706C1728.99 779.131 1738.03 792.714 1744.16 807.664C1750.28 822.614 1753.38 838.633 1753.26 854.79C1753.14 870.946 1749.81 886.918 1743.46 901.776C1737.11 916.634 1727.87 930.082 1716.28 941.337L1511.99 1145.64L1307.69 941.337Z" fill="#10642A"/>
<path d="M624.542 617L1219 1217" stroke="black" stroke-width="4.62" stroke-linejoin="round"/>
<path d="M1775.87 268C1775.87 129.4 1665.1 17 1528.43 17C1391.75 17 1280.98 129.36 1280.98 268L1231.57 368.35H1282.43C1291.94 455.63 1350.45 527.92 1429.5 556.25V617H1726.39V418.51C1758.57 375.129 1775.94 322.292 1775.87 268Z" fill="white" stroke="black" stroke-width="4.62" stroke-linejoin="round"/>
<path d="M1810.5 1217H1219V1817H1810.5V1217Z" stroke="black" stroke-width="4.62" stroke-linejoin="round"/>
</g>
<defs>
<clipPath id="clip0">
<rect width="2366" height="1200" fill="white" transform="translate(36 17)"/>
</clipPath>
</defs>
</svg>
