<svg xmlns="http://www.w3.org/2000/svg" viewBox="0 0 2400 1200"><defs><style>.cls-1{fill:#56d679;}.cls-2{fill:#fff;}.cls-2,.cls-3{stroke:#000;stroke-linejoin:round;stroke-width:4.62px;}.cls-3{fill:none;}.cls-4{fill:#3dbb61;}.cls-5{fill:#10642a;}</style></defs><g id="boxes"><path class="cls-1" d="M812,1023.53H983.45a0,0,0,0,1,0,0V1125a75,75,0,0,1-75,75H887a75,75,0,0,1-75-75V1023.53A0,0,0,0,1,812,1023.53Z"/><path class="cls-2" d="M1112,814.29C1112,695.94,1016.08,600,897.73,600S683.45,695.94,683.45,814.29A214.31,214.31,0,0,0,812,1010.72v48.1H983.45v-48.1A214.31,214.31,0,0,0,1112,814.29Z"/><line class="cls-3" x1="983.45" y1="1094.12" x2="812.02" y2="1094.12"/><line class="cls-3" x1="983.45" y1="1129.41" x2="812.02" y2="1129.41"/><path class="cls-3" d="M861.37,923a18.18,18.18,0,1,1,18.18-18.18"/><path class="cls-3" d="M915.92,904.81A18.18,18.18,0,1,1,934.1,923"/><line class="cls-3" x1="934.1" y1="922.99" x2="861.37" y2="922.99"/><line class="cls-3" x1="879.55" y1="1058.82" x2="879.55" y2="904.81"/><line class="cls-3" x1="915.92" y1="1058.82" x2="915.92" y2="904.81"/></g><g id="Main_Page_Illustration" data-name="Main Page Illustration"><circle class="cls-4" cx="2099.77" cy="900" r="200"/><path class="cls-3" d="M2099.77,700c55.23,0,100,89.54,100,200s-44.77,200-100,200"/><path class="cls-3" d="M2099.77,1100c-55.23,0-100-89.54-100-200s44.77-200,100-200"/><line class="cls-3" x1="2099.77" y1="700" x2="2099.77" y2="1100"/><line class="cls-3" x1="1899.77" y1="900" x2="2299.77" y2="900"/><path class="cls-3" d="M2099.77,700c55.23,0,100,89.54,100,200s-44.77,200-100,200"/><path class="cls-3" d="M2099.77,1100c-55.23,0-100-89.54-100-200s44.77-200,100-200"/><rect class="cls-3" x="597.45" y="600" width="602.32" height="600"/><polyline class="cls-3" points="599.77 1200 -0.23 1200 -0.23 600 599.77 600"/><path class="cls-3" d="M2099.19,600h1.16a299.42,299.42,0,0,1,299.42,299.42v1.16A299.42,299.42,0,0,1,2100.35,1200H1799.77a0,0,0,0,1,0,0V899.42A299.42,299.42,0,0,1,2099.19,600Z"/><path class="cls-1" d="M1793.45,6.33S1629-26,1547.54,55.51c-26.25,26.25-40.68,61.09-48.2,96.28h-1.89c-7.55-35.16-22-69.95-48.24-96.18C1367.56-26,1202.81,6.33,1202.81,6.33s-32.37,164.75,49.28,246.4c53.12,53.12,141.41,52.7,196.62,49.62V600h100V301.79c55.16,3,142.77,3.25,195.56-49.54C1825.76,170.76,1793.45,6.33,1793.45,6.33Z"/><line class="cls-3" x1="1199.77" x2="1449.77" y2="250"/><line class="cls-3" x1="1799.77" x2="1549.77" y2="250"/><polyline class="cls-3" points="1199.77 600 599.77 600 599.77 0 1199.77 0"/><rect class="cls-3" x="1199.77" width="600" height="600"/></g><g id="Design_Thinking" data-name="Design Thinking"><path class="cls-5" d="M95.59,895.59A121.89,121.89,0,1,1,268,723.22l31.92,31.91,31.91-31.91A121.89,121.89,0,1,1,504.18,895.59l-204.29,204.3Z"/><path class="cls-2" d="M799.77,251c0-138.6-112.36-251-251-251s-251,112.36-251,251L247.65,351.35h51.59c9.65,87.28,69,159.57,149.18,187.9V600H749.58V401.51A249.74,249.74,0,0,0,799.77,251Z"/></g><g id="Cybersecurity"><rect class="cls-3" x="1199.77" y="600" width="600" height="600"/><line class="cls-3" x1="1199.77" y1="600" x2="1799.77" y2="1200"/></g></svg>